<svg id="visual" viewBox="0 0 1080 200" width="1080" height="200" xmlns="http://www.w3.org/2000/svg" xmlns:xlink="http://www.w3.org/1999/xlink" version="1.1"><path d="M0 65L25.7 68.8C51.3 72.7 102.7 80.3 154.2 79C205.7 77.7 257.3 67.3 308.8 63.5C360.3 59.7 411.7 62.3 463 67C514.3 71.7 565.7 78.3 617 82.3C668.3 86.3 719.7 87.7 771.2 81.5C822.7 75.3 874.3 61.7 925.8 58.7C977.3 55.7 1028.7 63.3 1054.3 67.2L1080 71L1080 201L1054.3 201C1028.7 201 977.3 201 925.8 201C874.3 201 822.7 201 771.2 201C719.7 201 668.3 201 617 201C565.7 201 514.3 201 463 201C411.7 201 360.3 201 308.8 201C257.3 201 205.7 201 154.2 201C102.7 201 51.3 201 25.7 201L0 201Z" fill="#001220"></path><path d="M0 88L25.7 86.7C51.3 85.3 102.7 82.7 154.2 79.3C205.7 76 257.3 72 308.8 77.2C360.3 82.3 411.7 96.7 463 103.5C514.3 110.3 565.7 109.7 617 111.2C668.3 112.7 719.7 116.3 771.2 110.2C822.7 104 874.3 88 925.8 78.8C977.3 69.7 1028.7 67.3 1054.3 66.2L1080 65L1080 201L1054.3 201C1028.7 201 977.3 201 925.8 201C874.3 201 822.7 201 771.2 201C719.7 201 668.3 201 617 201C565.7 201 514.3 201 463 201C411.7 201 360.3 201 308.8 201C257.3 201 205.7 201 154.2 201C102.7 201 51.3 201 25.7 201L0 201Z" fill="#002d52"></path><path d="M0 112L25.7 109C51.3 106 102.7 100 154.2 103.7C205.7 107.3 257.3 120.7 308.8 122.7C360.3 124.7 411.7 115.3 463 115.7C514.3 116 565.7 126 617 131.5C668.3 137 719.7 138 771.2 136.5C822.7 135 874.3 131 925.8 125.7C977.3 120.3 1028.7 113.7 1054.3 110.3L1080 107L1080 201L1054.3 201C1028.7 201 977.3 201 925.8 201C874.3 201 822.7 201 771.2 201C719.7 201 668.3 201 617 201C565.7 201 514.3 201 463 201C411.7 201 360.3 201 308.8 201C257.3 201 205.7 201 154.2 201C102.7 201 51.3 201 25.7 201L0 201Z" fill="#004789"></path><path d="M0 135L25.7 138.3C51.3 141.7 102.7 148.3 154.2 148.3C205.7 148.3 257.3 141.7 308.8 141.7C360.3 141.7 411.7 148.3 463 147.8C514.3 147.3 565.7 139.7 617 140.2C668.3 140.7 719.7 149.3 771.2 148.8C822.7 148.3 874.3 138.7 925.8 135.5C977.3 132.3 1028.7 135.7 1054.3 137.3L1080 139L1080 201L1054.3 201C1028.7 201 977.3 201 925.8 201C874.3 201 822.7 201 771.2 201C719.7 201 668.3 201 617 201C565.7 201 514.3 201 463 201C411.7 201 360.3 201 308.8 201C257.3 201 205.7 201 154.2 201C102.7 201 51.3 201 25.7 201L0 201Z" fill="#0061c3"></path><path d="M0 161L25.7 163.2C51.3 165.3 102.7 169.7 154.2 172.2C205.7 174.7 257.3 175.3 308.8 173.5C360.3 171.7 411.7 167.3 463 166.2C514.3 165 565.7 167 617 168.7C668.3 170.3 719.7 171.7 771.2 169C822.7 166.3 874.3 159.7 925.8 157.5C977.3 155.3 1028.7 157.7 1054.3 158.8L1080 160L1080 201L1054.3 201C1028.7 201 977.3 201 925.8 201C874.3 201 822.7 201 771.2 201C719.7 201 668.3 201 617 201C565.7 201 514.3 201 463 201C411.7 201 360.3 201 308.8 201C257.3 201 205.7 201 154.2 201C102.7 201 51.3 201 25.7 201L0 201Z" fill="#007bff"></path></svg>