<svg id="visual" viewBox="0 0 1080 200" width="1080" height="200" xmlns="http://www.w3.org/2000/svg" xmlns:xlink="http://www.w3.org/1999/xlink" version="1.1"><path d="M0 114L25.7 121.3C51.3 128.7 102.7 143.3 154.2 151.8C205.7 160.3 257.3 162.7 308.8 158.2C360.3 153.7 411.7 142.3 463 135.7C514.3 129 565.7 127 617 126C668.3 125 719.7 125 771.2 127.5C822.7 130 874.3 135 925.8 139C977.3 143 1028.7 146 1054.3 147.5L1080 149L1080 0L1054.3 0C1028.7 0 977.3 0 925.8 0C874.3 0 822.7 0 771.2 0C719.7 0 668.3 0 617 0C565.7 0 514.3 0 463 0C411.7 0 360.3 0 308.8 0C257.3 0 205.7 0 154.2 0C102.7 0 51.3 0 25.7 0L0 0Z" fill="#007bff"></path><path d="M0 128L25.7 121.3C51.3 114.7 102.7 101.3 154.2 102.5C205.7 103.7 257.3 119.3 308.8 124.8C360.3 130.3 411.7 125.7 463 116.5C514.3 107.3 565.7 93.7 617 90.2C668.3 86.7 719.7 93.3 771.2 93.7C822.7 94 874.3 88 925.8 90.7C977.3 93.3 1028.7 104.7 1054.3 110.3L1080 116L1080 0L1054.3 0C1028.7 0 977.3 0 925.8 0C874.3 0 822.7 0 771.2 0C719.7 0 668.3 0 617 0C565.7 0 514.3 0 463 0C411.7 0 360.3 0 308.8 0C257.3 0 205.7 0 154.2 0C102.7 0 51.3 0 25.7 0L0 0Z" fill="#0061c3"></path><path d="M0 99L25.7 96.8C51.3 94.7 102.7 90.3 154.2 87.5C205.7 84.7 257.3 83.3 308.8 79C360.3 74.7 411.7 67.3 463 66C514.3 64.7 565.7 69.3 617 72.3C668.3 75.3 719.7 76.7 771.2 79.7C822.7 82.7 874.3 87.3 925.8 88.3C977.3 89.3 1028.7 86.7 1054.3 85.3L1080 84L1080 0L1054.3 0C1028.7 0 977.3 0 925.8 0C874.3 0 822.7 0 771.2 0C719.7 0 668.3 0 617 0C565.7 0 514.3 0 463 0C411.7 0 360.3 0 308.8 0C257.3 0 205.7 0 154.2 0C102.7 0 51.3 0 25.7 0L0 0Z" fill="#004789"></path><path d="M0 62L25.7 59.7C51.3 57.3 102.7 52.7 154.2 51.3C205.7 50 257.3 52 308.8 52.7C360.3 53.3 411.7 52.7 463 51.2C514.3 49.7 565.7 47.3 617 50.7C668.3 54 719.7 63 771.2 65.5C822.7 68 874.3 64 925.8 64.8C977.3 65.7 1028.7 71.3 1054.3 74.2L1080 77L1080 0L1054.3 0C1028.7 0 977.3 0 925.8 0C874.3 0 822.7 0 771.2 0C719.7 0 668.3 0 617 0C565.7 0 514.3 0 463 0C411.7 0 360.3 0 308.8 0C257.3 0 205.7 0 154.2 0C102.7 0 51.3 0 25.7 0L0 0Z" fill="#002d52"></path><path d="M0 31L25.7 33.8C51.3 36.7 102.7 42.3 154.2 41.5C205.7 40.7 257.3 33.3 308.8 28.7C360.3 24 411.7 22 463 23.7C514.3 25.3 565.7 30.7 617 30.7C668.3 30.7 719.7 25.3 771.2 25.5C822.7 25.7 874.3 31.3 925.8 31.2C977.3 31 1028.7 25 1054.3 22L1080 19L1080 0L1054.3 0C1028.7 0 977.3 0 925.8 0C874.3 0 822.7 0 771.2 0C719.7 0 668.3 0 617 0C565.7 0 514.3 0 463 0C411.7 0 360.3 0 308.8 0C257.3 0 205.7 0 154.2 0C102.7 0 51.3 0 25.7 0L0 0Z" fill="#001220"></path></svg>