<svg xmlns="http://www.w3.org/2000/svg" version="1.1" xmlns:xlink="http://www.w3.org/1999/xlink" xmlns:svgjs="http://svgjs.dev/svgjs" width="1440" height="560" preserveAspectRatio="none" viewBox="0 0 1440 560"><g mask="url(&quot;#SvgjsMask1012&quot;)" fill="none"><path d="M -387.8389858716312,70 C -291.84,118.4 -99.84,297 92.16101412836878,312 C 284.16,327 380.16,149.2 572.1610141283688,145 C 764.16,140.8 860.16,285.8 1052.1610141283688,291 C 1244.16,296.2 1454.59,161.6 1532.1610141283688,171 C 1609.73,180.4 1458.43,304.6 1440,338" stroke="rgba(53, 150, 166, 1)" stroke-width="2"></path><path d="M -486.0690171430341,184 C -390.07,221.6 -198.07,372.4 -6.069017143034117,372 C 185.93,371.6 281.93,195.8 473.9309828569659,182 C 665.93,168.2 761.93,316.4 953.9309828569659,303 C 1145.93,289.6 1336.72,80.8 1433.9309828569658,115 C 1531.14,149.2 1438.79,402.2 1440,474" stroke="rgba(0, 123, 255, 1)" stroke-width="2"></path><path d="M -958.7203172152693,206 C -862.72,245.2 -670.72,409.8 -478.72031721526935,402 C -286.72,394.2 -190.72,153.2 1.2796827847306531,167 C 193.28,180.8 289.28,454 481.27968278473065,471 C 673.28,488 769.54,270.6 961.2796827847307,252 C 1153.02,233.4 1344.26,352.8 1440,378" stroke="rgba(106, 176, 76, 1)" stroke-width="2"></path><path d="M -213.5044116838023,394 C -117.5,349.8 74.5,153 266.4955883161977,173 C 458.5,193 554.5,498.6 746.4955883161977,494 C 938.5,489.4 1034.5,156.2 1226.4955883161977,150 C 1418.5,143.8 1663.79,458.8 1706.4955883161977,463 C 1749.2,467.2 1493.3,229.4 1440,171" stroke="rgba(0, 123, 255, 1)" stroke-width="2"></path><path d="M -381.1297420577199,285 C -285.13,251 -93.13,104.2 98.87025794228009,115 C 290.87,125.8 386.87,332.8 578.8702579422801,339 C 770.87,345.2 866.87,157.4 1058.8702579422802,146 C 1250.87,134.6 1462.64,281.4 1538.8702579422802,282 C 1615.1,282.6 1459.77,175.6 1440,149" stroke="rgba(106, 176, 76, 1)" stroke-width="2"></path><path d="M -263.2285259390492,430 C -167.23,355.8 24.77,52.6 216.77147406095082,59 C 408.77,65.4 504.77,444.2 696.7714740609508,462 C 888.77,479.8 984.77,182.2 1176.7714740609508,148 C 1368.77,113.8 1604.13,286.8 1656.7714740609508,291 C 1709.42,295.2 1483.35,193.4 1440,169" stroke="rgba(106, 176, 76, 1)" stroke-width="2"></path><path d="M -541.5249783729896,372 C -445.52,313 -253.52,76.2 -61.52497837298963,77 C 130.48,77.8 226.48,349.2 418.4750216270104,376 C 610.48,402.8 706.48,199.6 898.4750216270104,211 C 1090.48,222.4 1270.17,420 1378.4750216270104,433 C 1486.78,446 1427.7,307.4 1440,276" stroke="rgba(53, 150, 166, 1)" stroke-width="2"></path><path d="M -224.4589107009748,175 C -128.46,215.2 63.54,370.8 255.5410892990252,376 C 447.54,381.2 543.54,214.8 735.5410892990252,201 C 927.54,187.2 1023.54,320.4 1215.5410892990253,307 C 1407.54,293.6 1650.65,125.4 1695.5410892990253,134 C 1740.43,142.6 1491.11,306.8 1440,350" stroke="rgba(53, 150, 166, 1)" stroke-width="2"></path><path d="M -515.8122821733177,149 C -419.81,185.6 -227.81,343.8 -35.8122821733177,332 C 156.19,320.2 252.19,74.8 444.1877178266823,90 C 636.19,105.2 732.19,398.8 924.1877178266823,408 C 1116.19,417.2 1301.03,152.6 1404.1877178266823,136 C 1507.35,119.4 1432.84,287.2 1440,325" stroke="rgba(53, 150, 166, 1)" stroke-width="2"></path><path d="M -514.6440930928087,358 C -418.64,338 -226.64,264 -34.64409309280871,258 C 157.36,252 253.36,339.6 445.3559069071913,328 C 637.36,316.4 733.36,206.8 925.3559069071913,200 C 1117.36,193.2 1302.43,301.2 1405.3559069071912,294 C 1508.28,286.8 1433.07,190 1440,164" stroke="rgba(53, 150, 166, 1)" stroke-width="2"></path></g><defs><mask id="SvgjsMask1012"><rect width="1440" height="560" fill="#ffffff"></rect></mask></defs></svg>