<svg xmlns="http://www.w3.org/2000/svg" version="1.1" xmlns:xlink="http://www.w3.org/1999/xlink" xmlns:svgjs="http://svgjs.dev/svgjs" width="1440" height="420" preserveAspectRatio="none" viewBox="0 0 1440 420"><g mask="url(&quot;#SvgjsMask1038&quot;)" fill="none"><path d="M -494.06862455242947,65 C -398.07,125.8 -206.07,363.6 -14.068624552429476,369 C 177.93,374.4 273.93,121.4 465.93137544757053,92 C 657.93,62.6 753.93,206 945.9313754475705,222 C 1137.93,238 1327.12,152.8 1425.9313754475704,172 C 1524.75,191.2 1437.19,288.8 1440,318" stroke="rgba(0, 123, 255, 1)" stroke-width="2"></path><path d="M -727.4499289745054,126 C -631.45,174 -439.45,360 -247.44992897450544,366 C -55.45,372 40.55,169.6 232.55007102549456,156 C 424.55,142.4 520.55,289.4 712.5500710254946,298 C 904.55,306.6 1047.06,187.8 1192.5500710254946,199 C 1338.04,210.2 1390.51,323 1440,354" stroke="rgba(106, 176, 76, 1)" stroke-width="2"></path><path d="M -548.6476995154045,244 C -452.65,208.2 -260.65,67.6 -68.64769951540445,65 C 123.35,62.4 219.35,221.4 411.35230048459556,231 C 603.35,240.6 699.35,102.8 891.3523004845955,113 C 1083.35,123.2 1261.62,264 1371.3523004845956,282 C 1481.08,300 1426.27,218.8 1440,203" stroke="rgba(0, 123, 255, 1)" stroke-width="2"></path><path d="M -923.3546713081471,287 C -827.35,259.6 -635.35,153.2 -443.3546713081471,150 C -251.35,146.8 -155.35,288 36.64532869185291,271 C 228.65,254 324.65,59.6 516.6453286918529,65 C 708.65,70.4 811.97,296.2 996.6453286918529,298 C 1181.32,299.8 1351.33,118.8 1440,74" stroke="rgba(106, 176, 76, 1)" stroke-width="2"></path><path d="M -26.306302076402574,254 C 69.69,235 261.69,150 453.6936979235974,159 C 645.69,168 741.69,299.2 933.6936979235975,299 C 1125.69,298.8 1221.69,168 1413.6936979235975,158 C 1605.69,148 1888.43,256.2 1893.6936979235975,249 C 1898.95,241.8 1530.74,147.4 1440,122" stroke="rgba(53, 150, 166, 1)" stroke-width="2"></path><path d="M -324.10159785805337,333 C -228.1,288.4 -36.1,107 155.89840214194663,110 C 347.9,113 443.9,345.4 635.8984021419467,348 C 827.9,350.6 923.9,136.4 1115.8984021419467,123 C 1307.9,109.6 1531.08,284 1595.8984021419467,281 C 1660.72,278 1471.18,142.6 1440,108" stroke="rgba(53, 150, 166, 1)" stroke-width="2"></path><path d="M -955.312954634726,350 C -859.31,310.4 -667.31,161.4 -475.312954634726,152 C -283.31,142.6 -187.31,294.4 4.6870453652740025,303 C 196.69,311.6 292.69,213.2 484.687045365274,195 C 676.69,176.8 773.62,216.8 964.687045365274,212 C 1155.75,207.2 1344.94,179.2 1440,171" stroke="rgba(53, 150, 166, 1)" stroke-width="2"></path><path d="M -12.400029512196,296 C 83.6,264.4 275.6,153.2 467.599970487804,138 C 659.6,122.8 755.6,215.6 947.5999704878041,220 C 1139.6,224.4 1235.6,141.4 1427.599970487804,160 C 1619.6,178.6 1905.12,324.6 1907.599970487804,313 C 1910.08,301.4 1533.52,144.2 1440,102" stroke="rgba(106, 176, 76, 1)" stroke-width="2"></path><path d="M -770.5581598479035,260 C -674.56,217.6 -482.56,33.2 -290.55815984790354,48 C -98.56,62.8 -2.56,320 189.44184015209646,334 C 381.44,348 477.44,121.2 669.4418401520965,118 C 861.44,114.8 995.33,329.6 1149.4418401520966,318 C 1303.55,306.4 1381.89,111.6 1440,60" stroke="rgba(106, 176, 76, 1)" stroke-width="2"></path><path d="M -101.75298224263918,211 C -5.75,198.2 186.25,132.8 378.2470177573608,147 C 570.25,161.2 666.25,288.6 858.2470177573608,282 C 1050.25,275.4 1146.25,96.8 1338.247017757361,114 C 1530.25,131.2 1797.9,358.6 1818.247017757361,368 C 1838.6,377.4 1515.65,202.4 1440,161" stroke="rgba(0, 123, 255, 1)" stroke-width="2"></path></g><defs><mask id="SvgjsMask1038"><rect width="1440" height="420" fill="#ffffff"></rect></mask></defs></svg>